<?xml version="1.0" standalone="no"?><!DOCTYPE svg PUBLIC "-//W3C//DTD SVG 1.1//EN" "http://www.w3.org/Graphics/SVG/1.1/DTD/svg11.dtd"><svg t="1562508612853" class="icon" viewBox="0 0 1152 1024" version="1.1" xmlns="http://www.w3.org/2000/svg" p-id="14103" xmlns:xlink="http://www.w3.org/1999/xlink" width="72" height="64"><defs><style type="text/css"></style></defs><path d="M1151.36 400.448C1141.12 203.776 992 33.92 798.912 11.968 647.552-5.12 494.72-3.008 342.912 12.672c-84.608 8.704-157.056 49.664-216.32 111.232-218.432 226.56-144.128 584.128 145.792 701.568 30.208 12.288 33.408 25.728 23.04 53.76-16.448 44.608-29.76 90.24-47.36 144.768 58.432-19.712 108.16-37.312 158.464-53.184 143.168-45.248 282.112-102.4 431.232-131.072 194.112-37.312 324.48-231.872 313.6-439.296zM331.264 513.92c-46.016 0.832-84.928-39.68-83.52-86.912 1.28-45.184 39.36-82.56 83.264-81.92 44.288 0.64 80.96 38.784 80.96 84.224 0.064 45.44-36.48 83.712-80.704 84.608z m246.144 0c-45.952 0.576-84.736-40.192-83.072-87.424 1.6-45.248 39.808-82.432 83.776-81.472 44.288 1.024 80.64 39.36 80.448 84.8-0.192 45.44-36.864 83.456-81.152 84.032z m246.4 0c-45.952 0.448-84.608-40.32-82.88-87.552 1.664-45.248 39.936-82.368 83.84-81.28 44.352 1.088 80.704 39.488 80.384 84.928-0.256 45.44-37.056 83.392-81.28 83.84z" fill="#E85529" p-id="14104"></path></svg>