<?xml version="1.0" standalone="no"?><!DOCTYPE svg PUBLIC "-//W3C//DTD SVG 1.1//EN" "http://www.w3.org/Graphics/SVG/1.1/DTD/svg11.dtd"><svg t="1562569165254" class="icon" viewBox="0 0 1068 1024" version="1.1" xmlns="http://www.w3.org/2000/svg" p-id="27522" data-spm-anchor-id="a313x.7781069.0.i90" xmlns:xlink="http://www.w3.org/1999/xlink" width="33.375" height="32"><defs><style type="text/css"></style></defs><path d="M968.347826 545.391304H80.13913c-20.034783 0-35.617391-15.582609-35.617391-33.391304s15.582609-33.391304 33.391304-33.391304h888.208696c17.808696 0 33.391304 15.582609 33.391304 33.391304s-13.356522 33.391304-31.165217 33.391304zM954.991304 1024h-204.8c-17.808696 0-33.391304-15.582609-33.391304-33.391304s15.582609-33.391304 33.391304-33.391305h204.8c17.808696 0 33.391304-15.582609 33.391305-33.391304v-171.408696c0-17.808696 15.582609-33.391304 33.391304-33.391304s33.391304 15.582609 33.391304 33.391304v171.408696c2.226087 53.426087-44.521739 100.173913-100.173913 100.173913zM287.165217 1024H115.756522C60.104348 1024 13.356522 977.252174 13.356522 921.6v-171.408696c0-17.808696 15.582609-33.391304 33.391304-33.391304s33.391304 15.582609 33.391304 33.391304v171.408696c0 17.808696 15.582609 33.391304 33.391305 33.391304h171.408695c17.808696 0 33.391304 15.582609 33.391305 33.391305s-13.356522 35.617391-31.165218 35.617391zM46.747826 309.426087c-17.808696 0-33.391304-15.582609-33.391304-33.391304V104.626087C13.356522 46.747826 57.878261 0 115.756522 0h171.408695c17.808696 0 33.391304 15.582609 33.391305 33.391304S304.973913 66.782609 287.165217 66.782609H115.756522c-17.808696 0-33.391304 15.582609-33.391305 33.391304v171.408696c0 22.26087-15.582609 37.843478-35.617391 37.843478zM1024 309.426087c-17.808696 0-33.391304-15.582609-33.391304-33.391304V104.626087c0-17.808696-15.582609-33.391304-33.391305-33.391304h-204.8c-17.808696 0-33.391304-15.582609-33.391304-33.391305S730.156522 0 750.191304 0h204.8c55.652174 0 102.4 46.747826 102.4 102.4v171.408696c0 20.034783-15.582609 35.617391-33.391304 35.617391z" p-id="27523" data-spm-anchor-id="a313x.7781069.0.i89" class="selected" fill="#8a8a8a"></path></svg>