<?xml version="1.0" standalone="no"?><!DOCTYPE svg PUBLIC "-//W3C//DTD SVG 1.1//EN" "http://www.w3.org/Graphics/SVG/1.1/DTD/svg11.dtd"><svg t="1562568526178" class="icon" viewBox="0 0 1024 1024" version="1.1" xmlns="http://www.w3.org/2000/svg" p-id="18694" width="32" height="32" xmlns:xlink="http://www.w3.org/1999/xlink"><defs><style type="text/css"></style></defs><path d="M476.727402 806.89108c183.417508 0 332.170567-148.753059 332.170567-332.170567S660.14491 142.549947 476.727402 142.549947C293.309894 142.671576 144.556836 291.424635 144.556836 474.842143c0 183.417508 148.753059 332.048937 332.170566 332.048937z m335.576197-60.571565l155.929208 155.929208a33.10759 33.10759 0 0 1 0 46.949044l-23.474522 23.474522a33.10759 33.10759 0 0 1-46.949044 0L741.271885 816.134933C560.4086 956.252286 301.70234 931.07495 151.368096 758.60411s-140.117354-432.150137 23.231263-592.214753C338.069604 6.324742 597.870531 1.459556 767.179 155.32106 936.487469 309.304193 956.313101 568.496971 812.303599 746.319515z m0 0" fill="#8A8A8A" p-id="18695"></path></svg>